<svg width="628" height="222" viewBox="0 0 628 222" fill="none" xmlns="http://www.w3.org/2000/svg">
<path fill-rule="evenodd" clip-rule="evenodd" d="M86.1287 151.313V90.5672H155.602C153.664 84.033 152.748 76.9935 152.748 69.5821C152.748 68.0044 152.784 66.4436 152.856 64.9006L151.999 64.8078C130.166 62.4419 112.582 61.2985 99.1032 61.2985C85.3887 61.2985 78.7943 63.0673 76.4963 64.4019C74.8864 65.337 72.2649 67.8677 70.0928 74.9138C68.1358 81.6998 66.805 95.186 66.805 116.799C66.805 138.059 69.5966 149.713 72.7544 154.832C74.2523 157.261 78.9102 161.198 93.8143 161.253L103.244 160.799V151.313H86.1287ZM117.047 173.955L94.1343 175.06C77.387 175.06 66.3449 170.734 61.0078 162.082C55.6708 153.43 53.0023 138.336 53.0023 116.799C53.0023 95.0771 54.2905 79.7985 56.867 70.9627C59.6276 61.9428 63.8604 55.7761 69.5655 52.4627C75.2706 49.1493 85.1165 47.4925 99.1032 47.4925C110.212 47.4925 123.753 48.2279 139.725 49.6985C144.127 50.1038 148.714 50.565 153.486 51.0821L154.59 21.5373L144.652 19.6045C124.776 15.7388 106.281 13.806 89.1653 13.806C61.744 13.806 42.3282 21.3532 30.918 36.4478C19.5078 51.5423 13.8027 76.1169 13.8027 110.172C13.8027 144.226 19.2317 169.077 30.0898 184.724C41.132 200.371 61.2839 208.194 90.5456 208.194C106.916 208.194 128.251 206.079 154.549 201.85L154.59 201.843V168.431V104.373H99.9314V137.507H117.047V173.955ZM168.332 213.616L156.782 215.474C130.129 219.762 107.969 222 90.5456 222C59.2623 222 33.5944 213.63 18.8135 192.686L18.7821 192.641L18.751 192.596C5.45629 173.438 0 145.101 0 110.172C0 75.2272 5.7281 46.88 19.9082 28.1213C34.9511 8.22103 59.4583 0 89.1653 0C107.308 0 126.695 2.04753 147.287 6.05234L168.825 10.2412L168.341 23.1846C170.35 20.9386 172.568 18.8286 175.002 16.8652C189.614 5.07825 208.685 0 230.595 0C243.689 0 259.211 0.33207 277.575 3.31344H346.178L373.766 134.272L401.354 3.31344H469.957L466.039 20.1785C481.17 6.0063 502.763 0 528.155 0C546.298 0 565.685 2.04753 586.276 6.05234L607.814 10.2412L605.715 66.4035L590.989 64.8078C569.156 62.4419 551.572 61.2985 538.093 61.2985C524.379 61.2985 517.784 63.0673 515.486 64.4019C513.876 65.337 511.255 67.8678 509.083 74.9142C507.126 81.7002 505.795 95.1863 505.795 116.799C505.795 138.059 508.586 149.713 511.744 154.832C513.242 157.261 517.9 161.198 532.804 161.253L542.234 160.799V151.313H525.119V90.5672H607.383V153.108H593.58V201.843L595.772 215.474C569.119 219.762 546.959 222 529.535 222C498.252 222 472.584 213.63 457.803 192.686L457.772 192.641L457.741 192.596C447.46 177.781 441.866 157.476 439.859 132.879L419.926 218.687H327.606L309.95 142.681C310.05 144.523 310.099 146.39 310.099 148.276C310.099 170.904 303.099 190.148 287.268 203.547C272.272 216.239 253.224 222 231.424 222C215.794 222 197.233 219.613 175.947 215.097L168.332 213.616ZM178.697 201.567C199.493 205.985 217.069 208.194 231.424 208.194C250.747 208.194 266.39 203.132 278.353 193.007C290.315 182.883 296.296 167.973 296.296 148.276C296.296 132.813 292.615 121.401 285.254 114.037C277.893 106.49 265.01 99.7711 246.606 93.8806C228.387 87.9901 216.793 83.4801 211.824 80.3508C206.855 77.2214 204.37 72.7114 204.37 66.8209C204.37 53.5672 214.4 46.9403 234.46 46.9403C243.143 46.9403 256.881 47.9149 275.673 49.8639C279.78 50.2899 284.128 50.7624 288.718 51.2815C288.943 51.307 302.442 52.1995 303.119 52.2762L294.952 17.1194L293.306 17.164C291.006 17.2263 288.706 17.2575 286.406 17.2575C284.078 17.2575 243.943 13.806 230.595 13.806C210.719 13.806 195.076 18.408 183.666 27.6119C173.872 35.5127 168.281 46.9403 166.894 61.8945C166.758 63.3594 166.663 64.8581 166.607 66.3907C166.57 67.4387 166.551 68.5025 166.551 69.5821C166.551 84.4925 170.876 96.1816 179.525 104.649C188.359 112.933 203.45 120.112 224.798 126.187C238.233 130.052 247.159 133.642 251.575 136.955C256.176 140.269 258.477 144.871 258.477 150.761C258.477 166.96 248.723 175.06 229.215 175.06C217.4 175.06 200.844 173.705 179.548 170.996C177.294 170.709 156.95 168.748 154.59 168.431V184.857L154.549 201.85L163.272 199.869C166.594 199.115 170.051 199.193 173.337 200.095L178.697 201.567ZM220.999 139.459C234.549 143.359 241.151 146.392 243.294 148L243.401 148.081L243.51 148.159C244.187 148.646 244.354 148.961 244.406 149.066C244.468 149.189 244.674 149.648 244.674 150.761C244.674 155.987 243.224 157.633 242.345 158.363C240.974 159.501 237.402 161.254 229.215 161.254C217.087 161.254 198.953 159.697 174.462 156.406L168.393 155.591V113.013C168.874 113.521 169.366 114.022 169.871 114.516L169.977 114.62L170.085 114.721C181.359 125.293 199.031 133.206 220.999 139.459ZM292.033 65.5522L287.838 65.0761C261.88 62.1298 244.269 60.7463 234.46 60.7463C225.512 60.7463 221.205 62.3038 219.5 63.4301C218.834 63.8704 218.658 64.1754 218.573 64.343C218.461 64.565 218.173 65.2597 218.173 66.8209C218.173 67.3212 218.225 67.6228 218.261 67.7715C218.294 67.9117 218.323 67.9585 218.323 67.9585C218.323 67.9585 218.345 68.0041 218.441 68.1023C218.543 68.2069 218.763 68.4066 219.178 68.6677C222.409 70.7024 232.238 74.7253 250.834 80.7383C269.826 86.8191 285.312 94.3606 295.074 104.335C298.824 108.1 301.769 112.414 304.021 117.157L292.033 65.5522ZM556.037 173.955L533.124 175.06C516.377 175.06 505.335 170.734 499.998 162.082C494.661 153.43 491.992 138.336 491.992 116.799C491.992 95.0771 493.28 79.7985 495.857 70.9627C498.618 61.9428 502.85 55.7761 508.555 52.4627C514.261 49.1493 524.106 47.4925 538.093 47.4925C549.202 47.4925 562.743 48.2279 578.715 49.6985C583.117 50.1038 587.704 50.565 592.476 51.0821L593.58 21.5373L583.642 19.6045C563.766 15.7388 545.271 13.806 528.155 13.806C500.734 13.806 481.318 21.3532 469.908 36.4478C458.498 51.5423 452.793 76.1169 452.793 110.172C452.793 144.226 458.222 169.077 469.08 184.724C480.122 200.371 500.274 208.194 529.535 208.194C545.915 208.194 567.263 206.077 593.58 201.843V153.108V104.373H538.921V137.507H556.037V173.955ZM334.98 17.1194H294.952L303.119 52.2762L338.569 204.881H408.963L452.579 17.1194H412.551L379.977 171.746H367.555L334.98 17.1194Z" fill="#21A0FB"/>
<path d="M610.431 158.496C610.431 159.407 609.447 159.909 608.614 159.541C606.97 158.815 604.425 157.822 602.506 157.667C600.782 157.527 598.919 159.013 598.992 160.741C599.079 162.809 600.208 165.774 600.921 167.457C601.195 168.105 600.783 168.85 600.079 168.85C594.362 168.85 589.727 164.214 589.727 158.496C589.727 152.777 594.362 148.141 600.079 148.141C605.796 148.141 610.431 152.777 610.431 158.496Z" fill="#21A0FB"/>
<path d="M602.421 162.684C602.109 161.633 603.087 160.655 604.137 160.967L626.093 167.498C627.365 167.877 627.422 169.658 626.177 170.117L616.099 173.83C615.719 173.97 615.42 174.269 615.281 174.648L611.568 184.729C611.109 185.975 609.329 185.918 608.95 184.645L602.421 162.684Z" fill="#21A0FB"/>
</svg>
